# xmcd CD database file
# Copyright (C) 1993-1998 Ti Kan
#
# Track frame offsets:
#  150
#  19332
#  38585
#  56605
#  74185
#  95597
#  117837
#  140680
#  158705
#
# Disc length: 2359 seconds
#
# Revision: 1
# Processed by: cddbd v1.4b41PL1 Copyright (c) Steve Scherf et al.
# Submitted via: CDWizzard Release:4.35
#
DISCID=7f093509
DTITLE=Commisioned - On The Winning Side
DYEAR=1900
DGENRE=
TTITLE0=You Keep On Blessing Me
TTITLE1=Strange Land
TTITLE2=I'm Gonna Let My Love Flow
TTITLE3=You Can Depend On Jesus
TTITLE4=Only What You Do
TTITLE5=What Will You Say
TTITLE6=When Jesus Sings
TTITLE7=Perilous Times
TTITLE8=Jesus Cares
EXTD=
EXTT0=
EXTT1=
EXTT2=
EXTT3=
EXTT4=
EXTT5=
EXTT6=
EXTT7=
EXTT8=
PLAYORDER=
